<svg width="389" height="365" viewBox="0 0 389 365" fill="none" xmlns="http://www.w3.org/2000/svg">
<path d="M212.655 0.00010755C243.515 -0.0598924 272.025 24.9901 260.655 61.8601C252.295 88.9701 232.515 110.37 218.655 132.86C215.305 138.29 212.315 144.71 214.055 151.2C215.625 157.05 220.135 163.63 226.745 163.15C236.655 162.42 245.595 157.87 254.035 152.95C262.475 148.03 271.785 143.93 280.085 138.7C285.035 135.58 289.855 132.26 294.755 129.06C304.615 122.59 314.715 116.36 325.665 111.87C354.495 100.06 379.375 118.69 386.665 138.87C392.755 155.72 384.755 174.09 377.665 183.87C369.715 194.84 359.225 202.52 344.665 206.87C321.885 213.68 281.615 207.48 261.665 202.87C251.355 200.49 234.705 202.67 226.735 210.15C224.785 211.98 223.095 214.31 222.905 216.97C222.415 223.91 233.555 234.27 238.665 237.87C259.315 252.42 287.845 259.68 301.665 280.87C324.235 315.48 291.615 353.16 264.665 361.87C237.905 370.52 210.285 351.71 201.695 326.33C195.275 307.38 196.905 287.62 197.915 268.07C198.685 253.1 199.295 240.09 186.675 230.87C169.605 218.39 153.625 254.23 149.675 264.87C136.895 299.26 135.065 336.77 101.675 350.87C93.0248 354.52 78.7848 359.79 65.6748 355.87C60.2648 354.25 54.0948 351.92 49.6748 348.87C32.4748 337.01 26.7848 306.51 39.6748 285.87C57.6548 257.08 104.245 250.87 133.675 232.87C141.235 228.25 147.075 220.83 147.875 211.8C148.045 209.91 147.975 207.94 147.155 206.23C146.235 204.31 144.455 202.93 142.605 201.87C131.985 195.76 117.635 196.31 105.805 196.38C90.3548 196.47 75.0248 198.89 59.5848 199.21C45.7348 199.5 30.4748 198.74 19.0548 190.13C7.63483 181.52 3.27484 168.9 0.644836 155.86C-1.11516 147.13 0.784835 133.64 5.64484 125.86C15.8248 109.57 44.4748 90.9701 72.6448 102.86C89.9948 110.18 112.365 134.19 126.645 146.86C133.675 153.11 152.505 175.66 168.645 164.86C177.295 159.07 177.615 143.98 173.645 132.86C167.695 116.2 148.995 74.1001 154.645 49.8601C157.785 36.3901 164.845 23.7901 175.135 14.4901C186.185 4.52011 199.625 0.0301075 212.655 0.00010755Z" fill="#202020"/>
</svg>
