<svg width="50" height="50" viewBox="0 0 50 50" fill="none" xmlns="http://www.w3.org/2000/svg">
<g clip-path="url(#clip0_1464_1130)">
<path d="M25 0C11.2467 0 0 11.2467 0 25C0 38.7533 11.2467 50 25 50C38.7533 50 50 38.7533 50 25C50 11.2467 38.7533 0 25 0ZM34.8551 37.5C34.3994 37.5 34.1715 37.2721 33.7077 37.0443C30.2734 34.9772 25.9196 33.8298 21.3379 33.8298C18.8151 33.8298 16.0645 34.2936 13.7695 34.7493C13.3138 34.7493 12.8581 34.9772 12.6302 34.9772C11.7106 34.9772 11.0189 34.2936 11.0189 33.374C11.0189 32.4544 11.4827 31.7708 12.3942 31.7708C15.3809 31.0872 18.3594 30.6234 21.5658 30.6234C26.8392 30.6234 31.6488 31.9987 35.7747 34.2936C36.2305 34.7493 36.6943 34.9772 36.6943 35.8968C36.2305 37.0443 35.5387 37.5 34.8551 37.5ZM37.3779 31.0872C36.9141 31.0872 36.4583 30.8594 36.0026 30.6234C32.1045 28.1087 26.6032 26.7334 20.6462 26.7334C17.6676 26.7334 14.917 27.1891 12.8581 27.6449C12.3942 27.8809 12.1663 27.8809 11.7106 27.8809C10.5631 27.8809 9.87142 26.9613 9.87142 26.0417C9.87142 24.8942 10.3353 24.4385 11.4746 23.9746C14.2253 23.291 16.9759 22.5993 20.874 22.5993C27.2949 22.5993 33.252 24.2025 38.2975 27.1891C38.9811 27.6449 39.4368 28.3284 39.4368 29.0202C39.209 30.1676 38.5254 31.0872 37.3779 31.0872ZM40.3564 23.7467C39.8926 23.7467 39.6647 23.5189 38.9811 23.291C34.3994 20.7682 27.7506 19.165 21.3298 19.165C18.1234 19.165 14.6891 19.6289 11.7025 20.3125C11.2467 20.3125 11.0189 20.5404 10.3353 20.5404C8.95996 20.7764 8.04036 19.6289 8.04036 18.2536C8.04036 16.8783 8.72396 16.1865 9.64355 15.9587C13.3138 15.0391 17.2119 14.5833 21.3298 14.5833C28.4342 14.5833 35.7747 16.1865 41.5039 19.165C42.1875 19.6289 42.8792 20.3125 42.8792 21.46C42.6514 22.8353 41.7318 23.7467 40.3564 23.7467Z" fill="#62CB6B"/>
</g>
<defs>
<clipPath id="clip0_1464_1130">
<rect width="50" height="50" fill="white"/>
</clipPath>
</defs>
</svg>
